name Run_50002_IK.mot
datacolumns 164
datarows 4
range 1.93 1.96
endheader
time	         pelvis_tilt	         pelvis_list	     pelvis_rotation	           pelvis_tx	           pelvis_ty	           pelvis_tz	       hip_flexion_r	     hip_adduction_r	      hip_rotation_r	        knee_angle_r	       ankle_angle_r	       hip_flexion_l	     hip_adduction_l	      hip_rotation_l	        knee_angle_l	       ankle_angle_l	    lumbar_extension	      lumbar_bending	     lumbar_rotation	          arm_flex_r	           arm_add_r	           arm_rot_r	        elbow_flex_r	           pro_sup_r	          arm_flex_l	           arm_add_l	           arm_rot_l	        elbow_flex_l	           pro_sup_l	    subtalar_angle_r	         mtp_angle_r	    subtalar_angle_l	         mtp_angle_l	        wrist_flex_r	         wrist_dev_r	        wrist_flex_l	         wrist_dev_l	             LASI_tx	             LASI_ty	             LASI_tz	             RASI_tx	             RASI_ty	             RASI_tz	             LPSI_tx	             LPSI_ty	             LPSI_tz	             RPSI_tx	             RPSI_ty	             RPSI_tz	             RTH1_tx	             RTH1_ty	             RTH1_tz	             RTH2_tx	             RTH2_ty	             RTH2_tz	             RTH3_tx	             RTH3_ty	             RTH3_tz	             LTH1_tx	             LTH1_ty	             LTH1_tz	             LTH2_tx	             LTH2_ty	             LTH2_tz	             LTH3_tx	             LTH3_ty	             LTH3_tz	             RTB1_tx	             RTB1_ty	             RTB1_tz	             RTB2_tx	             RTB2_ty	             RTB2_tz	             RTB3_tx	             RTB3_ty	             RTB3_tz	             LTB1_tx	             LTB1_ty	             LTB1_tz	             LTB2_tx	             LTB2_ty	             LTB2_tz	             LTB3_tx	             LTB3_ty	             LTB3_tz	             RCAL_tx	             RCAL_ty	             RCAL_tz	             RTOE_tx	             RTOE_ty	             RTOE_tz	             RMT5_tx	             RMT5_ty	             RMT5_tz	             LCAL_tx	             LCAL_ty	             LCAL_tz	             LTOE_tx	             LTOE_ty	             LTOE_tz	             LMT5_tx	             LMT5_ty	             LMT5_tz	             LACR_tx	             LACR_ty	             LACR_tz	             RACR_tx	             RACR_ty	             RACR_tz	             CLAV_tx	             CLAV_ty	             CLAV_tz	               C7_tx	               C7_ty	               C7_tz	             RUA1_tx	             RUA1_ty	             RUA1_tz	             RUA2_tx	             RUA2_ty	             RUA2_tz	             RUA3_tx	             RUA3_ty	             RUA3_tz	             RLEL_tx	             RLEL_ty	             RLEL_tz	             RMEL_tx	             RMEL_ty	             RMEL_tz	             LUA1_tx	             LUA1_ty	             LUA1_tz	             LUA2_tx	             LUA2_ty	             LUA2_tz	             LUA3_tx	             LUA3_ty	             LUA3_tz	             LLEL_tx	             LLEL_ty	             LLEL_tz	             LMEL_tx	             LMEL_ty	             LMEL_tz	      RFAsuperior_tx	      RFAsuperior_ty	      RFAsuperior_tz	        RFAradius_tx	        RFAradius_ty	        RFAradius_tz	          RFAulna_tx	          RFAulna_ty	          RFAulna_tz	      LFAsuperior_tx	      LFAsuperior_ty	      LFAsuperior_tz	        LFAradius_tx	        LFAradius_ty	        LFAradius_tz	          LFAulna_tx	          LFAulna_ty	          LFAulna_tz	
1.93	        -15.64061364	         -4.59444063	         -9.24382438	          0.99792398	          0.96944875	         -0.34281548	         10.16263531	         12.97119571	          6.82811793	        -32.55720119	         14.92669800	         56.74269066	         -8.85185048	          1.57508009	       -110.58324473	          9.57259563	          3.17092870	          7.90304211	         13.62052766	        -20.13332542	        -21.69066001	         -7.73464895	        114.07265643	        108.68322830	        -42.80766507	        -22.33599078	         -2.28891160	        108.34434594	        102.01666182	          0.00000000	          0.00000000	          0.00000000	          0.00000000	          0.00000000	          0.00000000	          0.00000000	          0.00000000	          1.03214319	          0.99728019	         -0.45887743	          1.00509559	          1.01463464	         -0.22819522	          0.86597250	          1.07198829	         -0.42896187	          0.85425588	          1.07671783	         -0.31578584	          0.91172056	          0.89385465	         -0.17854873	          0.84480385	          0.76296437	         -0.21106684	          0.87050674	          0.60412452	         -0.23041910	          0.99713305	          0.88651281	         -0.53350031	          1.01956977	          0.73867513	         -0.50632900	          1.14600284	          0.66070756	         -0.49844450	          0.83654413	          0.35468289	         -0.32473102	          0.74479105	          0.34964836	         -0.25726084	          0.70616687	          0.21635806	         -0.35238800	          1.14662762	          0.48086649	         -0.43588564	          1.01276084	          0.51648457	         -0.49294385	          0.93711678	          0.41736834	         -0.44698600	          0.52470475	          0.16119483	         -0.35741161	          0.74088675	          0.06674969	         -0.40137406	          0.68808084	          0.04867725	         -0.30603093	          0.75428983	          0.46991096	         -0.42243017	          0.85847873	          0.25651614	         -0.44422960	          0.81027695	          0.29577479	         -0.53871448	          0.99032776	          1.51121843	         -0.51287606	          1.02384132	          1.47492001	         -0.19000148	          1.07344789	          1.44975954	         -0.32432715	          0.94542714	          1.52444519	         -0.34916204	          0.92786861	          1.37242043	         -0.11813452	          0.97389528	          1.31396535	         -0.09751683	          0.91366816	          1.23822079	         -0.04882058	          0.88983269	          1.17800183	         -0.01841174	          0.87940989	          1.15061368	         -0.10491513	          0.87414249	          1.44339899	         -0.56360177	          0.88525443	          1.37355345	         -0.61317260	          0.79910191	          1.33728897	         -0.64303933	          0.76559931	          1.28175672	         -0.67252903	          0.73691650	          1.25949823	         -0.59015639	          0.99124045	          1.14051237	         -0.04147265	          1.12432829	          1.14514669	         -0.16390619	          1.12368566	          1.09019026	         -0.12186536	          0.80797173	          1.20505140	         -0.67031631	          0.95486938	          1.13132242	         -0.57193532	          0.92432517	          1.08071387	         -0.61349095	
1.94	        -15.51249250	         -3.73579371	         -8.15725977	          1.00198863	          0.97515960	         -0.34247988	          5.36566232	         11.13733610	          6.38657010	        -28.75547468	          9.35044930	         58.97151213	         -7.70173596	          1.11167978	       -106.05777145	          9.64597741	          3.71140855	          6.47931663	         13.99220206	        -19.50966285	        -20.74480686	         -7.67798516	        117.43194668	        109.73136627	        -45.87346474	        -23.35395824	         -3.59369459	        110.78092961	        102.68883091	          0.00000000	          0.00000000	          0.00000000	          0.00000000	          0.00000000	          0.00000000	          0.00000000	          0.00000000	          1.03385030	          1.00383575	         -0.45571007	          1.01056331	          1.01679081	         -0.22914012	          0.86768901	          1.07834546	         -0.42550287	          0.85859006	          1.08114639	         -0.31229026	          0.91332641	          0.89786412	         -0.17794673	          0.83650870	          0.77155839	         -0.20933187	          0.84963447	          0.61235189	         -0.22907627	          1.00084592	          0.89814585	         -0.53450090	          1.02838427	          0.75025657	         -0.50524807	          1.15780311	          0.67796030	         -0.49827186	          0.80093676	          0.36368703	         -0.32094973	          0.70812552	          0.36243821	         -0.25551252	          0.66857980	          0.22793040	         -0.35003346	          1.17310154	          0.49322708	         -0.43548045	          1.03514681	          0.51339115	         -0.48999599	          0.97217579	          0.40508851	         -0.44367061	          0.48847094	          0.18081674	         -0.35494315	          0.69192946	          0.06569930	         -0.40170844	          0.63833904	          0.05081668	         -0.30668749	          0.78498675	          0.43553715	         -0.41721617	          0.91408146	          0.23644689	         -0.44018111	          0.85937268	          0.26824069	         -0.53311645	          0.98777198	          1.51878239	         -0.51224022	          1.02915036	          1.48189477	         -0.19149653	          1.07494395	          1.45658806	         -0.32687833	          0.94650918	          1.53060612	         -0.34786545	          0.93550933	          1.37918332	         -0.11692248	          0.98246109	          1.32095375	         -0.09877970	          0.92501538	          1.24368828	         -0.04967909	          0.90318575	          1.18199577	         -0.02002343	          0.89168799	          1.15581330	         -0.10695420	          0.86914068	          1.45645642	         -0.56000967	          0.87687457	          1.38645848	         -0.61161219	          0.78939993	          1.35296466	         -0.64067076	          0.75253886	          1.29945520	         -0.66891809	          0.72522955	          1.27758552	         -0.58599756	          1.00613176	          1.15251414	         -0.04714737	          1.13375617	          1.16847162	         -0.17355747	          1.13924008	          1.11298707	         -0.13265246	          0.79428891	          1.22332245	         -0.66801328	          0.94241326	          1.14846845	         -0.57318840	          0.91150479	          1.09844126	         -0.61501092	
1.95	        -15.40353711	         -2.77944827	         -6.96001516	          1.00667998	          0.98091346	         -0.34208235	          0.59930363	          9.27136122	          5.44412595	        -24.44381246	          2.79112410	         60.65583205	         -6.47033507	          0.26781613	       -100.91488205	          9.57263200	          4.33429643	          4.89024195	         14.02077987	        -18.88877024	        -19.81637353	         -7.48834025	        120.74630177	        111.40326187	        -49.22893482	        -24.11056821	         -5.53540814	        113.31796598	        104.20816264	          0.00000000	          0.00000000	          0.00000000	          0.00000000	          0.00000000	          0.00000000	          0.00000000	          0.00000000	          1.03595018	          1.01041301	         -0.45205928	          1.01706855	          1.01897323	         -0.22988789	          0.86979777	          1.08474791	         -0.42157469	          0.86381823	          1.08551173	         -0.30888344	          0.91636177	          0.90261609	         -0.17744798	          0.82920189	          0.78102517	         -0.20754276	          0.82964067	          0.62299424	         -0.22780662	          1.00495714	          0.91036869	         -0.53506142	          1.03614038	          0.76173499	         -0.50307176	          1.16714276	          0.69389259	         -0.49771728	          0.76749667	          0.37520575	         -0.31636330	          0.67296494	          0.37751189	         -0.25358218	          0.63461808	          0.24057478	         -0.34629406	          1.19718310	          0.50497719	         -0.43611628	          1.05663406	          0.50857316	         -0.48686672	          1.00801607	          0.39285293	         -0.43981740	          0.45699847	          0.20134958	         -0.35222989	          0.64531550	          0.06513540	         -0.40159032	          0.59108316	          0.05406313	         -0.30649396	          0.81933900	          0.40036966	         -0.41039956	          0.97128182	          0.21863344	         -0.43540798	          0.91040218	          0.24169086	         -0.52597108	          0.98578572	          1.52631995	         -0.51146735	          1.03378862	          1.48921856	         -0.19340307	          1.07621271	          1.46365433	         -0.32950097	          0.94756536	          1.53652948	         -0.34678658	          0.94203878	          1.38622384	         -0.11675429	          0.99054235	          1.32830594	         -0.10013418	          0.93598746	          1.24970763	         -0.05039245	          0.91586107	          1.18673325	         -0.02168140	          0.90239567	          1.16167961	         -0.10876934	          0.86526106	          1.46967975	         -0.55639960	          0.86956300	          1.39934982	         -0.60951341	          0.78045818	          1.36910698	         -0.63717396	          0.74038087	          1.31770638	         -0.66454110	          0.71497941	          1.29581089	         -0.58097801	          1.01956556	          1.16509161	         -0.05264801	          1.14096461	          1.19198719	         -0.18259418	          1.15259544	          1.13684386	         -0.14218153	          0.78153890	          1.24206791	         -0.66502702	          0.93103197	          1.16595260	         -0.57382681	          0.90025039	          1.11680987	         -0.61691383	
1.96	        -15.42371398	         -1.71016139	         -5.73140752	          1.01163624	          0.98634034	         -0.34189997	         -3.74163573	          7.45521850	          4.03862083	        -20.19816362	         -4.31527391	         61.93173179	         -5.11452452	         -0.90047021	        -95.21112425	          9.59201487	          5.09299885	          3.19125898	         13.88013658	        -18.34043062	        -18.96214916	         -7.26332812	        123.97890656	        113.53227380	        -52.71734326	        -24.63129087	         -7.77589995	        115.77433643	        105.44097755	          0.00000000	          0.00000000	          0.00000000	          0.00000000	          0.00000000	          0.00000000	          0.00000000	          0.00000000	          1.03857902	          1.01683310	         -0.44833484	          1.02423636	          1.02096114	         -0.23065996	          0.87243889	          1.09101088	         -0.41758416	          0.86961862	          1.08970358	         -0.30549307	          0.92069769	          0.90807533	         -0.17782133	          0.82280641	          0.79120517	         -0.20646723	          0.81089030	          0.63541997	         -0.22727378	          1.00877362	          0.92187582	         -0.53535165	          1.04274817	          0.77238196	         -0.49980734	          1.17392113	          0.70777783	         -0.49624352	          0.73758960	          0.38849899	         -0.31188806	          0.64124176	          0.39405685	         -0.25179117	          0.60516667	          0.25387994	         -0.34160922	          1.21877022	          0.51564892	         -0.43741854	          1.07754705	          0.50201854	         -0.48381688	          1.04448527	          0.38099666	         -0.43558760	          0.43096173	          0.22324067	         -0.34884957	          0.60147487	          0.06596047	         -0.40096061	          0.54684743	          0.05932073	         -0.30527981	          0.85699719	          0.36520749	         -0.40255075	          1.03000615	          0.20381148	         -0.42953456	          0.96392747	          0.21690395	         -0.51795849	          0.98433782	          1.53331751	         -0.51041278	          1.03792440	          1.49639011	         -0.19552338	          1.07725519	          1.47017175	         -0.33205864	          0.94866498	          1.54185028	         -0.34593491	          0.94796159	          1.39308806	         -0.11706849	          0.99844097	          1.33550988	         -0.10157537	          0.94651756	          1.25592748	         -0.05078260	          0.92782735	          1.19182426	         -0.02307516	          0.91237911	          1.16767080	         -0.11021483	          0.86231836	          1.48215315	         -0.55281253	          0.86325994	          1.41190428	         -0.60709113	          0.77227086	          1.38556052	         -0.63272101	          0.72936633	          1.33602233	         -0.65961205	          0.70603811	          1.31364761	         -0.57528823	          1.03126873	          1.17732263	         -0.05777748	          1.14618678	          1.21478367	         -0.19073632	          1.16368790	          1.16085486	         -0.15027605	          0.76985746	          1.26069664	         -0.66153359	          0.92090273	          1.18312863	         -0.57429391	          0.88990717	          1.13482736	         -0.61842407	
